<?xml version="1.0" standalone="no"?><!DOCTYPE svg PUBLIC "-//W3C//DTD SVG 1.1//EN" "http://www.w3.org/Graphics/SVG/1.1/DTD/svg11.dtd"><svg t="1765271264113" class="icon" viewBox="0 0 1024 1024" version="1.1" xmlns="http://www.w3.org/2000/svg" p-id="33055" xmlns:xlink="http://www.w3.org/1999/xlink" width="200" height="200"><path d="M32 0v1024" fill="#000000" opacity=".3" p-id="33056"></path><path d="M64 0v1024" fill="#000000" p-id="33057"></path><path d="M96 0v1024" fill="#000000" opacity=".3" p-id="33058"></path><path d="M128 0v1024" fill="#000000" p-id="33059"></path><path d="M160 0v1024" fill="#000000" opacity=".3" p-id="33060"></path><path d="M192 0v1024" fill="#000000" p-id="33061"></path><path d="M224 0v1024" fill="#000000" opacity=".3" p-id="33062"></path><path d="M256 0v1024" fill="#000000" p-id="33063"></path><path d="M288 0v1024" fill="#000000" opacity=".3" p-id="33064"></path><path d="M320 0v1024" fill="#000000" p-id="33065"></path><path d="M352 0v1024" fill="#000000" opacity=".3" p-id="33066"></path><path d="M384 0v1024" fill="#000000" p-id="33067"></path><path d="M416 0v1024" fill="#000000" opacity=".3" p-id="33068"></path><path d="M448 0v1024" fill="#000000" p-id="33069"></path><path d="M480 0v1024" fill="#000000" opacity=".3" p-id="33070"></path><path d="M512 0v1024" fill="#000000" p-id="33071"></path><path d="M544 0v1024" fill="#000000" opacity=".3" p-id="33072"></path><path d="M576 0v1024" fill="#000000" p-id="33073"></path><path d="M608 0v1024" fill="#000000" opacity=".3" p-id="33074"></path><path d="M640 0v1024" fill="#000000" p-id="33075"></path><path d="M672 0v1024" fill="#000000" opacity=".3" p-id="33076"></path><path d="M704 0v1024" fill="#000000" p-id="33077"></path><path d="M736 0v1024" fill="#000000" opacity=".3" p-id="33078"></path><path d="M768 0v1024" fill="#000000" p-id="33079"></path><path d="M800 0v1024" fill="#000000" opacity=".3" p-id="33080"></path><path d="M832 0v1024" fill="#000000" p-id="33081"></path><path d="M864 0v1024" fill="#000000" opacity=".3" p-id="33082"></path><path d="M896 0v1024" fill="#000000" p-id="33083"></path><path d="M928 0v1024" fill="#000000" opacity=".3" p-id="33084"></path><path d="M960 0v1024" fill="#000000" p-id="33085"></path><path d="M992 0v1024M0 32h1024" fill="#000000" opacity=".3" p-id="33086"></path><path d="M0 64h1024" fill="#000000" p-id="33087"></path><path d="M0 96h1024" fill="#000000" opacity=".3" p-id="33088"></path><path d="M0 128h1024" fill="#000000" p-id="33089"></path><path d="M0 160h1024" fill="#000000" opacity=".3" p-id="33090"></path><path d="M0 192h1024" fill="#000000" p-id="33091"></path><path d="M0 224h1024" fill="#000000" opacity=".3" p-id="33092"></path><path d="M0 256h1024" fill="#000000" p-id="33093"></path><path d="M0 288h1024" fill="#000000" opacity=".3" p-id="33094"></path><path d="M0 320h1024" fill="#000000" p-id="33095"></path><path d="M0 352h1024" fill="#000000" opacity=".3" p-id="33096"></path><path d="M0 384h1024" fill="#000000" p-id="33097"></path><path d="M0 416h1024" fill="#000000" opacity=".3" p-id="33098"></path><path d="M0 448h1024" fill="#000000" p-id="33099"></path><path d="M0 480h1024" fill="#000000" opacity=".3" p-id="33100"></path><path d="M0 512h1024" fill="#000000" p-id="33101"></path><path d="M0 544h1024" fill="#000000" opacity=".3" p-id="33102"></path><path d="M0 576h1024" fill="#000000" p-id="33103"></path><path d="M0 608h1024" fill="#000000" opacity=".3" p-id="33104"></path><path d="M0 640h1024" fill="#000000" p-id="33105"></path><path d="M0 672h1024" fill="#000000" opacity=".3" p-id="33106"></path><path d="M0 704h1024" fill="#000000" p-id="33107"></path><path d="M0 736h1024" fill="#000000" opacity=".3" p-id="33108"></path><path d="M0 768h1024" fill="#000000" p-id="33109"></path><path d="M0 800h1024" fill="#000000" opacity=".3" p-id="33110"></path><path d="M0 832h1024" fill="#000000" p-id="33111"></path><path d="M0 864h1024" fill="#000000" opacity=".3" p-id="33112"></path><path d="M0 896h1024" fill="#000000" p-id="33113"></path><path d="M0 928h1024" fill="#000000" opacity=".3" p-id="33114"></path><path d="M0 960h1024" fill="#000000" p-id="33115"></path><path d="M0 992h1024" fill="#000000" opacity=".3" p-id="33116"></path><path d="M563.2 53.214C551.378 41.548 528.02 32 511.296 32H146.408C129.684 32 116 45.5 116 62v900c0 16.5 13.684 30 30.408 30H876.18c16.724 0 30.408-13.5 30.408-30V422c0-16.5-9.674-39.546-21.5-51.212L563.202 53.214z m268.264 854.08H201.856V116.706h314.052c2.606 0.424 7.52 2.43 9.666 3.952l301.888 297.84c1.54 2.12 3.574 6.966 4.002 9.54v479.256zM876.18 32H693.74c-16.724 0-20.732 9.546-8.908 21.212l200.256 197.574c11.828 11.668 21.502 7.714 21.502-8.786V62c0-16.5-13.684-30-30.408-30z" fill="#000000" p-id="33117"></path></svg>